<svg version="1.1" id="Layer_1" xmlns="http://www.w3.org/2000/svg" xmlns:xlink="http://www.w3.org/1999/xlink" x="0px" y="0px"
	 width="100%" viewBox="0 0 768 768" enable-background="new 0 0 768 768" xml:space="preserve">
<path fill="none" opacity="1.000000" stroke="none" 
	d="
M485.000000,769.000000 
	C323.333344,769.000000 162.166672,769.000000 1.000000,769.000000 
	C1.000000,513.000000 1.000000,257.000000 1.000000,1.000000 
	C257.000000,1.000000 513.000000,1.000000 769.000000,1.000000 
	C769.000000,257.000000 769.000000,513.000000 769.000000,769.000000 
	C674.500000,769.000000 580.000000,769.000000 485.000000,769.000000 
M325.053070,379.361969 
	C324.707611,379.216614 324.362122,379.071289 323.709381,378.388275 
	C323.329193,378.245819 322.949036,378.103394 322.590454,377.847382 
	C322.590454,377.847382 322.645081,377.868073 322.045807,377.315002 
	C317.396942,374.508942 312.871643,371.466461 308.068359,368.955811 
	C301.843170,365.701843 295.396423,362.871765 288.843872,359.343079 
	C288.507050,359.235840 288.170227,359.128601 287.729492,358.810150 
	C287.729492,358.810150 287.321014,358.781799 286.693146,358.237244 
	C275.842590,354.050201 264.729828,351.080444 252.088150,350.735413 
	C232.320862,349.591187 213.770737,354.197571 198.221848,361.034302 
	C212.778244,376.657684 227.531219,392.706451 242.579468,408.473419 
	C245.825165,411.874146 250.135071,414.259155 254.149628,417.750793 
	C277.583130,436.356079 304.263733,444.225067 334.949432,442.051422 
	C343.158875,442.051422 351.368286,442.051422 360.762451,442.051422 
	C356.863861,439.055145 353.932281,436.761353 350.958710,434.523346 
	C333.300934,421.233826 314.975159,409.085815 293.520752,400.985382 
	C284.145691,397.425293 274.770630,393.865173 265.352722,390.336731 
	C265.352722,390.336731 265.322754,390.300446 264.944489,389.827240 
	C262.967072,388.959229 260.989655,388.091217 258.563202,386.860931 
	C258.036896,386.653412 257.510590,386.445892 256.390747,385.855988 
	C255.949692,385.703430 255.508636,385.550873 254.621735,385.008972 
	C253.749802,384.269348 252.877853,383.529724 252.790390,382.895844 
	C253.895157,383.166260 255.040710,383.327728 256.098358,383.723907 
	C266.760834,387.717773 277.408844,391.750183 288.693726,396.128906 
	C293.954651,398.169556 299.474457,399.720734 304.428528,402.341431 
	C320.083771,410.622864 335.527161,419.304779 351.527435,428.309906 
	C360.316406,434.958099 369.105377,441.606262 378.939819,449.045227 
	C373.704926,423.622742 358.178070,406.452637 339.841248,390.321503 
	C336.752106,388.047058 333.662994,385.772644 330.492249,383.513458 
	C330.492249,383.513458 330.421814,383.469543 330.091095,382.982513 
	C329.419006,382.568451 328.746887,382.154419 327.898468,381.282288 
	C327.644104,381.033020 327.341461,380.938751 326.678589,380.487762 
	C326.144745,380.230499 325.610870,379.973206 325.061462,379.912231 
	C325.061462,379.912231 325.257996,379.899689 325.053070,379.361969 
M344.991241,518.673645 
	C344.794525,518.493469 344.597809,518.313293 344.635284,517.350281 
	C344.351440,515.608093 346.129089,512.509521 341.330933,513.162903 
	C340.895050,513.220032 340.459137,513.277222 339.215729,513.162476 
	C338.131653,513.284180 337.047607,513.405884 335.240082,513.352295 
	C334.509216,513.435730 333.778351,513.519165 332.335358,513.370605 
	C331.108826,513.442078 329.882263,513.513550 329.562134,513.532227 
	C330.537659,517.496338 331.464630,521.263184 332.257843,525.908508 
	C332.253754,541.600830 332.249695,557.293213 332.041016,573.815063 
	C331.633698,579.692078 331.226379,585.569031 330.829346,591.297668 
	C336.156555,591.297668 341.560608,591.297668 347.285675,591.297668 
	C346.673126,589.840149 346.293701,588.937378 345.953339,587.272461 
	C345.833130,586.524658 345.712921,585.776855 345.715668,584.101746 
	C345.512085,579.438721 345.308502,574.775757 346.031555,569.917358 
	C350.801361,570.122192 355.748383,571.249207 360.310425,570.372742 
	C380.378754,566.517029 391.386230,540.978088 381.079071,522.985657 
	C373.923431,510.494537 356.323578,508.262451 345.771271,518.707275 
	C345.771271,518.707275 345.715179,519.014771 344.991241,518.673645 
M386.723572,209.941025 
	C386.803131,210.637100 386.882690,211.333160 386.750854,212.925812 
	C386.818451,216.598938 386.886047,220.272049 386.726807,224.170319 
	C386.606445,224.510254 386.700714,224.779877 386.997894,225.918427 
	C388.003479,268.471497 392.276154,310.979218 387.948090,354.423859 
	C389.542419,353.295074 390.229736,352.867615 390.851288,352.359650 
	C405.536011,340.359100 415.145264,324.666748 422.346497,307.524750 
	C436.008514,275.003235 438.576813,241.799652 422.705353,209.545837 
	C412.698151,189.209274 399.769745,170.310181 387.974304,150.091476 
	C387.007050,148.270996 386.039795,146.450516 384.604523,143.749222 
	C381.306335,149.783066 378.542389,154.839584 375.207550,160.282104 
	C369.785400,170.491318 364.363251,180.700546 358.417358,191.363022 
	C355.529846,197.528946 352.294220,203.558487 349.816040,209.884766 
	C339.890533,235.222763 337.479828,260.891418 348.204346,286.601715 
	C351.711273,295.009003 356.424713,302.916809 360.650696,311.019501 
	C367.821503,324.768280 375.043335,338.490417 382.298004,352.327240 
	C382.455078,351.543762 382.730103,350.626434 382.813263,349.692017 
	C386.568176,307.499176 384.681122,265.218018 384.903381,222.049835 
	C384.942200,217.701843 384.981049,213.353867 385.593201,208.881088 
	C385.964783,209.000488 386.336334,209.119888 386.723572,209.941025 
M387.823242,434.042297 
	C387.816833,426.692810 387.810455,419.343353 388.132141,411.319824 
	C388.290131,409.274841 388.448120,407.229858 388.869873,404.382904 
	C389.446960,401.629883 390.236481,398.901764 390.562988,396.119324 
	C391.738739,386.099152 392.950500,376.075714 393.738770,366.021362 
	C394.037628,362.209717 392.577332,359.060699 387.876190,360.380127 
	C386.713257,368.670868 385.580444,376.671112 384.471680,384.674652 
	C383.522736,391.524567 382.601379,398.378296 381.442963,406.011536 
	C381.337860,407.355652 381.232788,408.699768 381.012268,410.881927 
	C381.016235,419.919220 381.020172,428.956512 380.875580,438.872986 
	C381.800568,444.871643 382.725525,450.870331 383.615295,456.640594 
	C390.845276,456.785919 390.819977,450.278412 394.626312,446.699982 
	C402.742340,439.757629 410.858368,432.815277 419.679504,426.012024 
	C431.674622,419.216339 443.463745,412.016205 455.736176,405.764954 
	C464.137665,401.485443 473.212250,398.527344 482.752899,395.001923 
	C486.493378,393.610809 490.233856,392.219666 494.705780,390.825500 
	C503.241364,387.498383 511.776978,384.171234 520.312561,380.844086 
	C520.437927,381.148895 520.563232,381.453705 520.688538,381.758514 
	C516.119934,384.031311 511.551361,386.304108 506.222778,388.711670 
	C500.484680,391.172302 494.746613,393.632935 488.280334,396.173187 
	C484.825684,397.688354 481.371002,399.203491 477.161835,400.851593 
	C451.096344,409.683014 428.628845,424.588226 406.921265,441.757782 
	C419.099670,441.757782 430.537476,441.757782 442.897003,441.937561 
	C455.626465,442.218872 468.128601,441.078949 480.772278,436.074463 
	C490.175049,431.355896 499.577850,426.637360 509.636108,421.741241 
	C515.280884,417.256805 520.925659,412.772369 527.139160,408.026245 
	C542.392822,392.025238 557.646484,376.024200 573.247681,359.658661 
	C559.506775,354.671631 546.099060,351.298615 531.310364,350.575409 
	C515.741089,349.664093 500.607147,351.716675 485.259369,357.297821 
	C476.806732,361.393433 468.354095,365.489044 459.224792,369.842438 
	C451.455597,375.060608 443.686401,380.278778 435.286865,385.832245 
	C420.454102,397.431702 406.885132,410.291656 396.669098,426.241760 
	C394.067474,430.303589 392.738281,435.180450 390.182953,439.997284 
	C389.385834,438.322144 388.588745,436.647003 387.823242,434.042297 
M437.073700,348.373474 
	C426.033783,359.969666 414.993896,371.565857 403.496033,383.643097 
	C405.396759,383.899963 406.397430,384.372406 407.016968,384.068329 
	C416.387634,379.468750 425.708313,374.767242 435.818268,370.091736 
	C442.919312,367.744598 450.107666,365.630463 457.105621,363.008118 
	C481.502777,353.865845 501.397064,338.900146 515.521118,316.782349 
	C523.987854,303.523773 528.499512,288.894684 530.511658,273.310303 
	C533.206482,252.438263 531.100891,231.878311 527.812134,210.516052 
	C509.099274,220.658127 491.775848,231.641647 475.329926,245.167892 
	C468.265717,251.792389 461.201508,258.416901 453.596497,265.444733 
	C431.105286,289.459106 419.814087,319.080658 410.972778,350.746582 
	C408.527435,355.605499 406.146271,360.498108 403.618835,365.313904 
	C401.051849,370.204987 398.229767,374.991638 399.350220,381.560394 
	C403.303741,377.142151 406.713745,373.132263 410.332520,369.320557 
	C429.281464,349.361572 448.309784,329.477783 467.211456,309.474274 
	C468.571838,308.034576 469.141815,305.847961 470.786285,303.981018 
	C472.853943,302.169037 475.458588,300.706665 476.902618,298.488678 
	C486.721802,283.406342 496.296448,268.164825 506.435760,252.491791 
	C507.439331,250.950211 508.442932,249.408646 509.446533,247.867081 
	C509.800659,248.077011 510.154755,248.286942 510.508881,248.496887 
	C507.292633,254.753632 504.111023,261.028473 500.853607,267.263733 
	C490.961060,286.199982 477.709045,302.754059 463.515778,319.402252 
	C454.903961,328.927063 446.292175,338.451904 437.073700,348.373474 
M252.608093,225.166626 
	C256.231262,230.812943 259.854462,236.459244 263.780823,242.767715 
	C269.264252,252.258011 274.129913,262.178314 280.370026,271.141846 
	C290.777893,286.092133 302.065430,300.430023 313.182098,315.497253 
	C313.446808,315.709259 313.711517,315.921234 314.024536,316.566498 
	C314.139801,316.876495 314.362579,317.039520 315.081116,317.626678 
	C335.200745,341.295074 355.320404,364.963470 375.379578,388.560730 
	C374.752380,385.053528 374.457886,381.047455 373.282867,377.318817 
	C370.709625,369.153595 367.689880,361.129059 364.925598,352.264954 
	C364.260254,349.864868 363.598083,347.463867 362.929016,345.064819 
	C356.392181,321.625000 348.514648,298.746002 334.926514,278.263184 
	C319.625427,255.198242 299.649567,237.347183 274.628815,224.167053 
	C265.295654,220.267700 255.962479,216.368362 246.105087,211.917465 
	C244.306488,211.689728 242.507874,211.462006 240.363739,211.190521 
	C240.363739,227.024048 240.363739,241.984512 240.240417,257.761932 
	C242.188858,267.337280 243.475388,277.105865 246.204712,286.453186 
	C256.008820,320.030060 275.895966,345.172546 308.723877,359.061188 
	C327.105591,366.838043 345.762878,374.110809 361.298279,387.211456 
	C363.619507,389.168915 365.975250,391.085388 368.315033,393.020844 
	C368.719208,392.699646 369.123383,392.378418 369.527557,392.057220 
	C367.826752,389.356445 366.389313,386.439911 364.382263,383.990051 
	C351.636108,368.432007 338.570953,353.132019 325.987457,337.444977 
	C313.093506,321.370880 300.490570,305.056976 288.050598,288.628204 
	C283.362183,282.436462 279.487732,275.628387 275.053345,268.375824 
	C268.806519,257.154572 262.492676,245.969788 256.356018,234.688614 
	C254.641861,231.537384 253.450775,228.101608 252.608093,225.166626 
M223.835617,481.188965 
	C221.762817,481.795441 219.624893,482.239014 217.628616,483.036926 
	C209.554367,486.264404 203.824051,491.589752 202.459915,500.625458 
	C201.144119,509.340881 204.367203,516.337463 210.981750,521.774109 
	C213.651962,523.968872 216.775558,525.655334 219.821396,527.340820 
	C226.507874,531.040833 233.383682,534.409302 239.975418,538.266479 
	C244.748413,541.059387 247.552536,545.378235 246.684784,551.171082 
	C245.827698,556.892761 241.993515,560.344666 236.715027,561.883362 
	C226.012619,565.003357 216.317902,562.996704 207.990433,555.338196 
	C206.984482,554.413086 205.965881,553.501770 204.575134,552.241516 
	C203.946793,555.906189 203.181534,558.820374 203.062256,561.760742 
	C203.007843,563.101929 203.859192,565.196594 204.926590,565.758301 
	C219.318710,573.332886 234.061874,575.022217 248.781586,566.877502 
	C263.029938,558.993652 265.779053,535.671570 249.861496,526.598022 
	C244.815750,523.721802 239.629013,521.090759 234.610901,518.168701 
	C229.893585,515.421814 224.836685,512.984802 220.779236,509.438843 
	C213.806549,503.345032 215.676834,493.952850 224.422821,490.797791 
	C228.003845,489.505951 232.572708,488.765259 236.050659,489.843323 
	C242.696075,491.903320 248.881683,495.446625 255.128204,498.314575 
	C255.587082,495.056213 256.229431,490.494965 256.908295,485.674561 
	C246.401138,481.346436 235.878754,478.949524 223.835617,481.188965 
M306.278656,569.855469 
	C318.716827,566.707214 318.741608,566.677612 317.067902,556.473511 
	C317.044769,556.332336 316.864197,556.216919 316.757080,556.089478 
	C301.140411,564.691528 286.032227,560.491272 284.239258,546.874817 
	C296.163269,543.161560 308.123718,539.436890 320.412476,535.610046 
	C319.424438,531.329712 318.832031,527.533447 317.654236,523.928345 
	C315.500000,517.334534 310.613739,513.538635 303.945862,512.197327 
	C288.577637,509.105927 273.860016,519.070251 270.351624,534.791809 
	C266.761993,550.877502 275.917877,566.252869 291.551147,569.566589 
	C296.006470,570.510925 300.798065,569.868713 306.278656,569.855469 
M523.904236,521.419556 
	C516.588745,529.980103 514.969604,539.956421 517.724548,550.459534 
	C521.660095,565.463562 536.948486,573.169373 553.992249,569.317017 
	C564.153259,567.020386 564.288025,566.853149 563.858398,556.744629 
	C563.847900,556.498901 563.548828,556.265442 563.381958,556.027954 
	C546.426392,564.361084 533.885315,561.024170 530.817322,546.995483 
	C542.762146,543.277832 554.746155,539.547974 566.958374,535.747070 
	C566.415466,532.642151 566.042236,529.852600 565.428711,527.117004 
	C563.253296,517.417542 557.044373,512.225952 547.231873,511.809174 
	C538.264099,511.428223 530.562317,514.254272 523.904236,521.419556 
M472.905426,559.646484 
	C471.785522,558.709900 470.665649,557.773315 469.433380,556.742737 
	C468.859833,558.792236 468.611694,560.645874 467.836609,562.243958 
	C466.295868,565.420471 467.269623,567.059509 470.440735,568.271667 
	C480.174561,571.992554 489.908661,572.474426 499.560547,568.321594 
	C510.027344,563.817993 513.101074,551.510193 505.304596,543.199402 
	C501.592346,539.242188 496.267273,536.716187 491.465118,533.895386 
	C488.781708,532.319214 485.541992,531.711365 482.785767,530.233154 
	C478.361084,527.859985 478.185333,522.395630 482.776794,520.562622 
	C485.898529,519.316406 490.015594,519.085876 493.251740,519.979431 
	C497.258759,521.085876 500.814911,523.825195 505.234711,526.221802 
	C505.963928,522.936035 506.689697,519.665588 507.382843,516.542297 
	C496.767426,511.671844 485.660278,510.943909 477.702972,514.341064 
	C470.138672,517.570374 466.395172,524.088684 467.964020,531.389221 
	C469.176636,537.032288 473.277924,539.966431 478.186523,542.094116 
	C482.742462,544.068787 487.715210,545.430603 491.716278,548.200745 
	C493.968292,549.759888 495.987946,553.818787 495.615112,556.389343 
	C495.250946,558.900391 492.110748,561.932190 489.483673,563.000732 
	C483.891846,565.275146 478.404297,563.500793 472.905426,559.646484 
M411.370148,563.685425 
	C411.190125,555.701111 410.810516,547.715149 410.876770,539.732849 
	C410.976868,527.672119 415.577576,523.213745 427.465393,523.102173 
	C427.759521,523.099365 428.051178,522.834534 428.510742,522.610596 
	C429.557556,519.505005 430.640930,516.291016 431.763153,512.961731 
	C421.524628,509.451233 415.551025,515.212219 409.788757,522.784241 
	C409.522186,518.952026 409.327911,516.158508 409.104004,512.939636 
	C404.012268,513.187805 399.123383,513.426086 394.939240,513.630005 
	C400.160187,532.249329 397.877655,550.516174 396.039581,568.937622 
	C401.484070,568.937622 407.406372,568.937622 413.610504,568.937622 
	C412.855591,567.242065 412.253571,565.890015 411.370148,563.685425 
M456.372711,569.313416 
	C456.792084,568.965210 457.619934,568.537292 457.569855,568.280701 
	C456.764313,564.151917 455.259369,560.071045 455.075806,555.927673 
	C454.678741,546.967834 454.945099,537.978516 454.941864,529.001282 
	C454.939972,523.750000 454.941498,518.498718 454.941498,512.839111 
	C449.221497,513.166626 444.152405,513.456909 439.876953,513.701721 
	C442.801971,532.456238 442.198029,550.662170 439.103699,569.335815 
	C444.309875,569.335815 449.928772,569.335815 456.372711,569.313416 
M440.123077,499.181519 
	C443.790253,503.437714 447.336609,504.500488 450.829559,502.044434 
	C454.283051,499.616150 455.857849,496.285858 454.148987,492.085052 
	C452.445068,487.896423 448.859985,487.304413 445.014984,487.930206 
	C440.439331,488.674896 438.596558,492.626587 440.123077,499.181519 
z"/>
<path fill="#78907E" opacity="1.000000" stroke="none" 
	d="
M388.151733,150.766266 
	C399.769745,170.310181 412.698151,189.209274 422.705353,209.545837 
	C438.576813,241.799652 436.008514,275.003235 422.346497,307.524750 
	C415.145264,324.666748 405.536011,340.359100 390.851288,352.359650 
	C390.229736,352.867615 389.542419,353.295074 387.948090,354.423859 
	C392.276154,310.979218 388.003479,268.471497 387.023682,225.188522 
	C387.017517,224.287476 386.985596,224.116333 386.953644,223.945175 
	C386.886047,220.272049 386.818451,216.598938 387.140930,212.170013 
	C387.672943,209.606552 387.929901,207.799500 387.939117,205.991180 
	C388.033112,187.582993 388.086761,169.174606 388.151733,150.766266 
z"/>
<path fill="#527470" opacity="1.000000" stroke="none" 
	d="
M464.069946,319.030914 
	C477.709045,302.754059 490.961060,286.199982 500.853607,267.263733 
	C504.111023,261.028473 507.292633,254.753632 510.508881,248.496887 
	C510.154755,248.286942 509.800659,248.077011 509.446533,247.867081 
	C508.442932,249.408646 507.439331,250.950211 505.877686,252.593506 
	C500.666656,250.791763 496.144989,248.387543 491.324402,247.123642 
	C486.357880,245.821472 481.100128,245.630219 475.969788,244.952896 
	C491.775848,231.641647 509.099274,220.658127 527.812134,210.516052 
	C531.100891,231.878311 533.206482,252.438263 530.511658,273.310303 
	C528.499512,288.894684 523.987854,303.523773 515.521118,316.782349 
	C501.397064,338.900146 481.502777,353.865845 457.105621,363.008118 
	C450.107666,365.630463 442.919312,367.744598 435.445129,369.734131 
	C438.413361,364.607086 441.754669,359.837585 445.435303,355.005890 
	C446.648987,354.027130 447.756500,353.242096 448.359772,352.172638 
	C452.158234,345.438751 456.075256,338.754944 459.480042,331.822266 
	C461.464417,327.781647 462.569336,323.309113 464.069946,319.030914 
z"/>
<path fill="#98B49F" opacity="1.000000" stroke="none" 
	d="
M275.242218,269.101257 
	C279.487732,275.628387 283.362183,282.436462 288.050598,288.628204 
	C300.490570,305.056976 313.093506,321.370880 325.987457,337.444977 
	C338.570953,353.132019 351.636108,368.432007 364.382263,383.990051 
	C366.389313,386.439911 367.826752,389.356445 369.527557,392.057220 
	C369.123383,392.378418 368.719208,392.699646 368.315033,393.020844 
	C365.975250,391.085388 363.619507,389.168915 361.298279,387.211456 
	C345.762878,374.110809 327.105591,366.838043 308.723877,359.061188 
	C275.895966,345.172546 256.008820,320.030060 246.204712,286.453186 
	C243.475388,277.105865 242.188858,267.337280 240.716431,257.367493 
	C249.585205,256.607941 256.727783,260.272675 263.909912,263.913574 
	C267.612457,265.790527 271.460114,267.381226 275.242218,269.101257 
z"/>
<path fill="#537470" opacity="1.000000" stroke="none" 
	d="
M384.781342,222.967667 
	C384.681122,265.218018 386.568176,307.499176 382.813263,349.692017 
	C382.730103,350.626434 382.455078,351.543762 382.298004,352.327240 
	C375.043335,338.490417 367.821503,324.768280 360.650696,311.019501 
	C356.424713,302.916809 351.711273,295.009003 348.204346,286.601715 
	C337.479828,260.891418 339.890533,235.222763 349.816040,209.884766 
	C352.294220,203.558487 355.529846,197.528946 358.922028,191.416779 
	C374.647888,194.583862 379.784882,206.180618 383.029022,219.424011 
	C383.335083,220.673340 384.184296,221.789627 384.781342,222.967667 
z"/>
<path fill="#79907E" opacity="1.000000" stroke="none" 
	d="
M275.070557,224.635834 
	C299.649567,237.347183 319.625427,255.198242 334.926514,278.263184 
	C348.514648,298.746002 356.392181,321.625000 362.929016,345.064819 
	C363.598083,347.463867 364.260254,349.864868 364.552307,352.616089 
	C363.141418,352.167053 362.087311,351.387360 361.068726,350.563660 
	C350.630157,342.122406 340.378754,333.434113 329.676819,325.341461 
	C325.170410,321.933868 319.716248,319.779602 314.692902,317.055573 
	C314.362579,317.039520 314.139801,316.876495 313.984528,316.113373 
	C313.623871,315.448761 313.303223,315.237244 312.982605,315.025726 
	C302.065430,300.430023 290.777893,286.092133 280.370026,271.141846 
	C274.129913,262.178314 269.264252,252.258011 264.045776,242.405624 
	C265.448914,240.892792 266.896393,239.917892 267.668884,238.559219 
	C270.265747,233.991806 272.622162,229.287659 275.070557,224.635834 
z"/>
<path fill="#1A3A3D" opacity="1.000000" stroke="none" 
	d="
M224.254517,481.132355 
	C235.878754,478.949524 246.401138,481.346436 256.908295,485.674561 
	C256.229431,490.494965 255.587082,495.056213 255.128204,498.314575 
	C248.881683,495.446625 242.696075,491.903320 236.050659,489.843323 
	C232.572708,488.765259 228.003845,489.505951 224.422821,490.797791 
	C215.676834,493.952850 213.806549,503.345032 220.779236,509.438843 
	C224.836685,512.984802 229.893585,515.421814 234.610901,518.168701 
	C239.629013,521.090759 244.815750,523.721802 249.861496,526.598022 
	C265.779053,535.671570 263.029938,558.993652 248.781586,566.877502 
	C234.061874,575.022217 219.318710,573.332886 204.926590,565.758301 
	C203.859192,565.196594 203.007843,563.101929 203.062256,561.760742 
	C203.181534,558.820374 203.946793,555.906189 204.575134,552.241516 
	C205.965881,553.501770 206.984482,554.413086 207.990433,555.338196 
	C216.317902,562.996704 226.012619,565.003357 236.715027,561.883362 
	C241.993515,560.344666 245.827698,556.892761 246.684784,551.171082 
	C247.552536,545.378235 244.748413,541.059387 239.975418,538.266479 
	C233.383682,534.409302 226.507874,531.040833 219.821396,527.340820 
	C216.775558,525.655334 213.651962,523.968872 210.981750,521.774109 
	C204.367203,516.337463 201.144119,509.340881 202.459915,500.625458 
	C203.824051,491.589752 209.554367,486.264404 217.628616,483.036926 
	C219.624893,482.239014 221.762817,481.795441 224.254517,481.132355 
z"/>
<path fill="#729491" opacity="1.000000" stroke="none" 
	d="
M485.982086,357.233521 
	C500.607147,351.716675 515.741089,349.664093 531.484436,351.031372 
	C531.384155,352.608063 530.604797,353.899902 530.917175,354.821777 
	C533.003723,360.979218 535.323120,367.057800 537.564697,373.155792 
	C532.800476,375.097992 529.290344,379.518799 530.626282,381.908478 
	C532.278198,384.863434 534.599060,387.512115 535.820496,390.612396 
	C536.464966,392.248108 535.387085,394.562347 535.086853,396.570221 
	C528.000549,395.366028 528.602417,402.213470 525.876465,405.532379 
	C525.519165,405.967438 526.310913,407.346252 526.570435,408.287964 
	C520.925659,412.772369 515.280884,417.256805 509.313232,421.400024 
	C509.793823,418.018066 510.643982,414.988434 511.371399,411.929626 
	C511.581726,411.045227 511.851318,409.690216 511.396454,409.206055 
	C505.740723,403.186218 507.255402,395.699066 506.982788,388.576904 
	C511.551361,386.304108 516.119934,384.031311 520.688538,381.758514 
	C520.563232,381.453705 520.437927,381.148895 520.312561,380.844086 
	C511.776978,384.171234 503.241364,387.498383 494.254883,390.471008 
	C492.870026,388.559479 491.051636,386.946991 491.145264,385.454437 
	C491.764893,375.575836 488.844940,366.425842 485.982086,357.233521 
z"/>
<path fill="#456867" opacity="1.000000" stroke="none" 
	d="
M334.024902,441.908447 
	C304.263733,444.225067 277.583130,436.356079 254.059464,417.051147 
	C253.462875,411.572815 252.451736,406.925018 255.232742,402.232574 
	C257.607910,398.224884 257.610382,392.392883 264.314941,392.385986 
	C264.675873,392.385620 265.035400,391.029846 265.395599,390.305054 
	C274.770630,393.865173 284.145691,397.425293 293.795471,401.556152 
	C302.312408,411.045654 310.367950,420.147614 318.871063,428.810272 
	C323.532379,433.559082 328.948914,437.566650 334.024902,441.908447 
z"/>
<path fill="#1B3C3F" opacity="1.000000" stroke="none" 
	d="
M345.592712,585.029053 
	C345.712921,585.776855 345.833130,586.524658 345.660614,587.896484 
	C341.499603,589.091675 337.631287,589.662842 332.586060,590.407776 
	C333.080933,584.016357 333.503326,578.561279 333.948792,572.631470 
	C333.959869,556.405579 333.947815,540.654541 333.945190,524.514587 
	C333.652252,520.618042 333.349854,517.110291 333.047485,513.602600 
	C333.778351,513.519165 334.509216,513.435730 335.716187,513.723938 
	C337.469299,513.841858 338.746277,513.588135 340.023254,513.334351 
	C340.459137,513.277222 340.895050,513.220032 341.708618,513.550415 
	C342.857910,515.336243 343.629517,516.734680 344.401093,518.133057 
	C344.597809,518.313293 344.794525,518.493469 345.402283,518.792603 
	C345.813324,518.911560 346.036194,518.541382 346.036194,518.541382 
	C356.323578,508.262451 373.923431,510.494537 381.079071,522.985657 
	C391.386230,540.978088 380.378754,566.517029 360.310425,570.372742 
	C355.748383,571.249207 350.801361,570.122192 345.382599,570.312988 
	C345.019989,575.482117 345.306335,580.255615 345.592712,585.029053 
M354.419678,563.442688 
	C357.588135,561.834717 361.728149,561.002808 363.746521,558.476135 
	C370.322449,550.244019 372.200165,540.542725 369.321777,530.322266 
	C367.335449,523.269165 361.978210,519.402710 356.403290,520.202454 
	C350.552307,521.041687 345.601166,527.036987 345.500549,533.833618 
	C345.397308,540.809448 345.480225,547.793640 345.703979,554.766968 
	C345.904388,561.012024 347.254669,562.339661 354.419678,563.442688 
z"/>
<path fill="#597A76" opacity="1.000000" stroke="none" 
	d="
M411.234528,350.059784 
	C419.814087,319.080658 431.105286,289.459106 454.159241,265.416016 
	C455.117676,267.022339 455.513397,268.657379 456.088867,271.034973 
	C457.877228,271.301239 460.450226,271.256958 462.635864,272.155151 
	C464.174011,272.787292 466.495575,275.086578 466.231567,275.983215 
	C463.264709,286.060333 465.209625,296.082947 465.796265,306.387329 
	C463.688965,307.571198 461.639740,308.257263 459.955750,309.456238 
	C455.940125,312.315369 451.924744,315.219452 448.216827,318.457581 
	C437.653107,327.682922 427.270355,337.115265 416.743958,346.383820 
	C415.101776,347.829803 413.080505,348.845245 411.234528,350.059784 
z"/>
<path fill="#486A69" opacity="1.000000" stroke="none" 
	d="
M287.833435,359.021362 
	C288.170227,359.128601 288.507050,359.235840 288.935333,359.986694 
	C289.236572,361.600525 289.578827,362.563141 289.635254,363.542175 
	C290.109985,371.782745 290.780731,380.025116 290.820648,388.269714 
	C290.832764,390.771301 291.658936,394.290039 288.060944,395.771759 
	C277.408844,391.750183 266.760834,387.717773 256.098358,383.723907 
	C255.040710,383.327728 253.895157,383.166260 252.356934,382.568665 
	C250.060974,381.456268 248.213593,380.632599 246.333191,379.892883 
	C240.183075,377.473541 234.020920,375.084747 226.980927,372.340179 
	C228.788788,369.295441 229.837830,367.016937 231.350723,365.105591 
	C233.411469,362.502045 235.806976,360.160461 238.101837,357.747314 
	C238.714981,357.102570 239.407974,356.283936 240.195114,356.097565 
	C243.652496,355.278992 247.208099,354.838623 250.614365,353.863678 
	C251.603363,353.580627 252.214645,351.977814 252.999084,350.980011 
	C264.729828,351.080444 275.842590,354.050201 287.099792,358.524170 
	C287.506409,358.811096 287.833435,359.021332 287.833435,359.021362 
z"/>
<path fill="#3D605E" opacity="1.000000" stroke="none" 
	d="
M288.377319,395.950317 
	C291.658936,394.290039 290.832764,390.771301 290.820648,388.269714 
	C290.780731,380.025116 290.109985,371.782745 289.635254,363.542175 
	C289.578827,362.563141 289.236572,361.600525 289.035919,360.244751 
	C295.396423,362.871765 301.843170,365.701843 308.068359,368.955811 
	C312.871643,371.466461 317.396942,374.508942 322.316162,377.584839 
	C322.586548,377.854675 322.568848,377.960968 322.568848,377.960968 
	C322.949036,378.103394 323.329193,378.245819 324.001434,378.894165 
	C324.614990,379.566589 324.936493,379.733154 325.257996,379.899689 
	C325.257996,379.899689 325.061462,379.912231 325.193115,380.102325 
	C325.880035,380.528107 326.435272,380.763794 326.990509,380.999481 
	C327.341461,380.938751 327.644104,381.033020 328.013489,381.882874 
	C328.892944,382.812134 329.657379,383.140839 330.421814,383.469543 
	C330.421814,383.469543 330.492249,383.513458 330.380096,383.877136 
	C333.492828,389.164703 336.717682,394.088623 339.963989,399.385162 
	C340.320129,400.663422 340.636658,401.576202 340.992188,402.473572 
	C344.341827,410.927795 347.698151,419.379395 351.052521,427.831757 
	C335.527161,419.304779 320.083771,410.622864 304.428528,402.341431 
	C299.474457,399.720734 293.954651,398.169556 288.377319,395.950317 
z"/>
<path fill="#4F6F6D" opacity="1.000000" stroke="none" 
	d="
M252.543610,350.857727 
	C252.214645,351.977814 251.603363,353.580627 250.614365,353.863678 
	C247.208099,354.838623 243.652496,355.278992 240.195114,356.097565 
	C239.407974,356.283936 238.714981,357.102570 238.101837,357.747314 
	C235.806976,360.160461 233.411469,362.502045 231.350723,365.105591 
	C229.837830,367.016937 228.788788,369.295441 226.980927,372.340179 
	C234.020920,375.084747 240.183075,377.473541 246.333191,379.892883 
	C248.213593,380.632599 250.060974,381.456268 251.964691,382.515808 
	C252.877853,383.529724 253.749802,384.269348 254.797363,385.608276 
	C254.747574,387.603149 254.522141,388.998718 254.296707,390.394287 
	C254.682129,390.472748 255.067551,390.551208 255.452957,390.629639 
	C255.963394,389.165894 256.473816,387.702148 256.984253,386.238403 
	C257.510590,386.445892 258.036896,386.653412 258.803467,387.409912 
	C261.136719,388.739380 263.229736,389.519928 265.322754,390.300476 
	C265.322754,390.300446 265.352722,390.336731 265.374146,390.320862 
	C265.035400,391.029846 264.675873,392.385620 264.314941,392.385986 
	C257.610382,392.392883 257.607910,398.224884 255.232742,402.232574 
	C252.451736,406.925018 253.462875,411.572815 253.962036,416.731750 
	C250.135071,414.259155 245.825165,411.874146 242.579468,408.473419 
	C227.531219,392.706451 212.778244,376.657684 198.221848,361.034302 
	C213.770737,354.197571 232.320862,349.591187 252.543610,350.857727 
z"/>
<path fill="#5E7F7B" opacity="1.000000" stroke="none" 
	d="
M466.020355,306.122742 
	C465.209625,296.082947 463.264709,286.060333 466.231567,275.983215 
	C466.495575,275.086578 464.174011,272.787292 462.635864,272.155151 
	C460.450226,271.256958 457.877228,271.301239 456.088867,271.034973 
	C455.513397,268.657379 455.117676,267.022339 454.429626,265.214355 
	C461.201508,258.416901 468.265717,251.792389 475.649841,245.060394 
	C481.100128,245.630219 486.357880,245.821472 491.324402,247.123642 
	C496.144989,248.387543 500.666656,250.791763 505.634827,252.834961 
	C496.296448,268.164825 486.721802,283.406342 476.902618,298.488678 
	C475.458588,300.706665 472.853943,302.169037 470.125122,304.104248 
	C468.316101,304.859192 467.168243,305.490967 466.020355,306.122742 
z"/>
<path fill="#1A3A3D" opacity="1.000000" stroke="none" 
	d="
M305.857056,569.904785 
	C300.798065,569.868713 296.006470,570.510925 291.551147,569.566589 
	C275.917877,566.252869 266.761993,550.877502 270.351624,534.791809 
	C273.860016,519.070251 288.577637,509.105927 303.945862,512.197327 
	C310.613739,513.538635 315.500000,517.334534 317.654236,523.928345 
	C318.832031,527.533447 319.424438,531.329712 320.412476,535.610046 
	C308.123718,539.436890 296.163269,543.161560 284.239258,546.874817 
	C286.032227,560.491272 301.140411,564.691528 316.757080,556.089478 
	C316.864197,556.216919 317.044769,556.332336 317.067902,556.473511 
	C318.741608,566.677612 318.716827,566.707214 305.857056,569.904785 
M307.095612,530.110291 
	C307.138824,525.068237 305.397400,521.043579 300.523376,518.922852 
	C295.957092,516.936096 292.388306,519.257629 289.342682,522.135925 
	C284.633423,526.586365 283.414978,532.465088 283.053284,540.289978 
	C291.624878,536.881836 299.206818,533.867188 307.095612,530.110291 
z"/>
<path fill="#1A3A3D" opacity="1.000000" stroke="none" 
	d="
M524.141052,521.154358 
	C530.562317,514.254272 538.264099,511.428223 547.231873,511.809174 
	C557.044373,512.225952 563.253296,517.417542 565.428711,527.117004 
	C566.042236,529.852600 566.415466,532.642151 566.958374,535.747070 
	C554.746155,539.547974 542.762146,543.277832 530.817322,546.995483 
	C533.885315,561.024170 546.426392,564.361084 563.383179,556.027100 
	C563.548828,556.265442 563.847900,556.498901 563.858398,556.744629 
	C564.288025,566.853149 564.153259,567.020386 553.992249,569.317017 
	C536.948486,573.169373 521.660095,565.463562 517.724548,550.459534 
	C514.969604,539.956421 516.588745,529.980103 524.141052,521.154358 
M539.422180,536.949707 
	C543.294006,535.460815 547.259216,534.166687 550.988220,532.379822 
	C552.334656,531.734680 553.926331,529.962769 554.018494,528.610413 
	C554.534058,521.047241 546.203674,515.930908 539.521729,519.491760 
	C533.032593,522.949829 529.232788,531.005981 530.201355,539.845459 
	C533.075745,538.926025 535.868469,538.032715 539.422180,536.949707 
z"/>
<path fill="#456867" opacity="1.000000" stroke="none" 
	d="
M435.917236,385.496948 
	C443.686401,380.278778 451.455597,375.060608 459.732544,370.046844 
	C469.856354,374.023529 476.406464,380.539032 479.051361,390.772705 
	C479.452240,392.323853 480.979614,393.583862 481.985931,394.978516 
	C473.212250,398.527344 464.137665,401.485443 455.736176,405.764954 
	C443.463745,412.016205 431.674622,419.216339 419.295227,425.619019 
	C420.271545,421.654785 421.493439,418.023102 423.019165,414.523865 
	C427.250824,404.818726 431.609039,395.168732 435.917236,385.496948 
z"/>
<path fill="#1A3A3D" opacity="1.000000" stroke="none" 
	d="
M473.203735,559.881775 
	C478.404297,563.500793 483.891846,565.275146 489.483673,563.000732 
	C492.110748,561.932190 495.250946,558.900391 495.615112,556.389343 
	C495.987946,553.818787 493.968292,549.759888 491.716278,548.200745 
	C487.715210,545.430603 482.742462,544.068787 478.186523,542.094116 
	C473.277924,539.966431 469.176636,537.032288 467.964020,531.389221 
	C466.395172,524.088684 470.138672,517.570374 477.702972,514.341064 
	C485.660278,510.943909 496.767426,511.671844 507.382843,516.542297 
	C506.689697,519.665588 505.963928,522.936035 505.234711,526.221802 
	C500.814911,523.825195 497.258759,521.085876 493.251740,519.979431 
	C490.015594,519.085876 485.898529,519.316406 482.776794,520.562622 
	C478.185333,522.395630 478.361084,527.859985 482.785767,530.233154 
	C485.541992,531.711365 488.781708,532.319214 491.465118,533.895386 
	C496.267273,536.716187 501.592346,539.242188 505.304596,543.199402 
	C513.101074,551.510193 510.027344,563.817993 499.560547,568.321594 
	C489.908661,572.474426 480.174561,571.992554 470.440735,568.271667 
	C467.269623,567.059509 466.295868,565.420471 467.836609,562.243958 
	C468.611694,560.645874 468.859833,558.792236 469.433380,556.742737 
	C470.665649,557.773315 471.785522,558.709900 473.203735,559.881775 
z"/>
<path fill="#7A9B96" opacity="1.000000" stroke="none" 
	d="
M526.854797,408.157104 
	C526.310913,407.346252 525.519165,405.967438 525.876465,405.532379 
	C528.602417,402.213470 528.000549,395.366028 535.086853,396.570221 
	C535.387085,394.562347 536.464966,392.248108 535.820496,390.612396 
	C534.599060,387.512115 532.278198,384.863434 530.626282,381.908478 
	C529.290344,379.518799 532.800476,375.097992 537.564697,373.155792 
	C535.323120,367.057800 533.003723,360.979218 530.917175,354.821777 
	C530.604797,353.899902 531.384155,352.608063 531.849487,351.209290 
	C546.099060,351.298615 559.506775,354.671631 573.247681,359.658661 
	C557.646484,376.024200 542.392822,392.025238 526.854797,408.157104 
z"/>
<path fill="#1A3A3D" opacity="1.000000" stroke="none" 
	d="
M411.510864,564.111694 
	C412.253571,565.890015 412.855591,567.242065 413.610504,568.937622 
	C407.406372,568.937622 401.484070,568.937622 396.039581,568.937622 
	C397.877655,550.516174 400.160187,532.249329 394.939240,513.630005 
	C399.123383,513.426086 404.012268,513.187805 409.104004,512.939636 
	C409.327911,516.158508 409.522186,518.952026 409.788757,522.784241 
	C415.551025,515.212219 421.524628,509.451233 431.763153,512.961731 
	C430.640930,516.291016 429.557556,519.505005 428.510742,522.610596 
	C428.051178,522.834534 427.759521,523.099365 427.465393,523.102173 
	C415.577576,523.213745 410.976868,527.672119 410.876770,539.732849 
	C410.810516,547.715149 411.190125,555.701111 411.510864,564.111694 
z"/>
<path fill="#4F6F6D" opacity="1.000000" stroke="none" 
	d="
M477.916382,400.718689 
	C481.371002,399.203491 484.825684,397.688354 488.632965,396.551819 
	C487.466858,404.961670 486.130493,413.033295 484.363464,421.009521 
	C483.240051,426.080597 481.477234,431.010010 480.001160,436.002960 
	C468.128601,441.078949 455.626465,442.218872 442.427368,441.522064 
	C440.776886,440.295685 439.596069,439.484802 437.822327,438.266754 
	C438.520050,437.860870 439.157104,437.605072 439.654205,437.184052 
	C449.899628,428.507202 460.286926,419.987152 470.268616,411.015991 
	C473.385254,408.214844 475.398193,404.185669 477.916382,400.718689 
z"/>
<path fill="#85A890" opacity="1.000000" stroke="none" 
	d="
M275.147766,268.738525 
	C271.460114,267.381226 267.612457,265.790527 263.909912,263.913574 
	C256.727783,260.272675 249.585205,256.607941 240.778107,256.959015 
	C240.363739,241.984512 240.363739,227.024048 240.363739,211.190521 
	C242.507874,211.462006 244.306488,211.689728 246.105103,212.398651 
	C248.076660,216.852005 250.048203,220.824173 252.019745,224.796356 
	C253.450775,228.101608 254.641861,231.537384 256.356018,234.688614 
	C262.492676,245.969788 268.806519,257.154572 275.147766,268.738525 
z"/>
<path fill="#3D605E" opacity="1.000000" stroke="none" 
	d="
M477.539124,400.785156 
	C475.398193,404.185669 473.385254,408.214844 470.268616,411.015991 
	C460.286926,419.987152 449.899628,428.507202 439.654205,437.184052 
	C439.157104,437.605072 438.520050,437.860870 437.822327,438.266754 
	C439.596069,439.484802 440.776886,440.295685 441.966492,441.432190 
	C430.537476,441.757782 419.099670,441.757782 406.921265,441.757782 
	C428.628845,424.588226 451.096344,409.683014 477.539124,400.785156 
z"/>
<path fill="#2F5456" opacity="1.000000" stroke="none" 
	d="
M465.796265,306.387329 
	C467.168243,305.490967 468.316101,304.859192 469.771667,304.118042 
	C469.141815,305.847961 468.571838,308.034576 467.211456,309.474274 
	C448.309784,329.477783 429.281464,349.361572 410.332520,369.320557 
	C406.713745,373.132263 403.303741,377.142151 399.350220,381.560394 
	C398.229767,374.991638 401.051849,370.204987 403.618835,365.313904 
	C406.146271,360.498108 408.527435,355.605499 411.103638,350.403198 
	C413.080505,348.845245 415.101776,347.829803 416.743958,346.383820 
	C427.270355,337.115265 437.653107,327.682922 448.216827,318.457581 
	C451.924744,315.219452 455.940125,312.315369 459.955750,309.456238 
	C461.639740,308.257263 463.688965,307.571198 465.796265,306.387329 
z"/>
<path fill="#6F918E" opacity="1.000000" stroke="none" 
	d="
M480.386719,436.038696 
	C481.477234,431.010010 483.240051,426.080597 484.363464,421.009521 
	C486.130493,413.033295 487.466858,404.961670 488.997070,396.511993 
	C494.746613,393.632935 500.484680,391.172302 506.602783,388.644287 
	C507.255402,395.699066 505.740723,403.186218 511.396454,409.206055 
	C511.851318,409.690216 511.581726,411.045227 511.371399,411.929626 
	C510.643982,414.988434 509.793823,418.018066 508.985535,421.488800 
	C499.577850,426.637360 490.175049,431.355896 480.386719,436.038696 
z"/>
<path fill="#486860" opacity="1.000000" stroke="none" 
	d="
M314.887024,317.341125 
	C319.716248,319.779602 325.170410,321.933868 329.676819,325.341461 
	C340.378754,333.434113 350.630157,342.122406 361.068726,350.563660 
	C362.087311,351.387360 363.141418,352.167053 364.515808,353.007141 
	C367.689880,361.129059 370.709625,369.153595 373.282867,377.318817 
	C374.457886,381.047455 374.752380,385.053528 375.379578,388.560730 
	C355.320404,364.963470 335.200745,341.295074 314.887024,317.341125 
z"/>
<path fill="#3D605E" opacity="1.000000" stroke="none" 
	d="
M384.842346,222.508759 
	C384.184296,221.789627 383.335083,220.673340 383.029022,219.424011 
	C379.784882,206.180618 374.647888,194.583862 359.183899,191.190155 
	C364.363251,180.700546 369.785400,170.491318 375.849854,160.108917 
	C377.432953,159.247940 378.366730,158.550262 379.316345,157.874786 
	C380.592346,156.967072 381.880585,156.076508 383.163574,155.178589 
	C383.778137,156.124878 384.392670,157.071152 385.009705,158.462601 
	C385.058014,161.298294 385.103821,163.688828 385.121948,166.542145 
	C385.069458,181.005249 385.044678,195.005569 385.019897,209.005875 
	C384.981049,213.353867 384.942200,217.701843 384.842346,222.508759 
z"/>
<path fill="#274D4E" opacity="1.000000" stroke="none" 
	d="
M435.602051,385.664612 
	C431.609039,395.168732 427.250824,404.818726 423.019165,414.523865 
	C421.493439,418.023102 420.271545,421.654785 418.942688,425.549500 
	C410.858368,432.815277 402.742340,439.757629 393.948120,446.808960 
	C392.454773,444.506226 391.639648,442.094543 390.824463,439.682861 
	C392.738281,435.180450 394.067474,430.303589 396.669098,426.241760 
	C406.885132,410.291656 420.454102,397.431702 435.602051,385.664612 
z"/>
<path fill="#1A3A3D" opacity="1.000000" stroke="none" 
	d="
M455.960205,569.324585 
	C449.928772,569.335815 444.309875,569.335815 439.103699,569.335815 
	C442.198029,550.662170 442.801971,532.456238 439.876953,513.701721 
	C444.152405,513.456909 449.221497,513.166626 454.941498,512.839111 
	C454.941498,518.498718 454.939972,523.750000 454.941864,529.001282 
	C454.945099,537.978516 454.678741,546.967834 455.075806,555.927673 
	C455.259369,560.071045 456.764313,564.151917 457.569855,568.280701 
	C457.619934,568.537292 456.792084,568.965210 455.960205,569.324585 
z"/>
<path fill="#214446" opacity="1.000000" stroke="none" 
	d="
M334.487183,441.979919 
	C328.948914,437.566650 323.532379,433.559082 318.871063,428.810272 
	C310.367950,420.147614 302.312408,411.045654 294.075684,401.734558 
	C314.975159,409.085815 333.300934,421.233826 350.958710,434.523346 
	C353.932281,436.761353 356.863861,439.055145 360.762451,442.051422 
	C351.368286,442.051422 343.158875,442.051422 334.487183,441.979919 
z"/>
<path fill="#214446" opacity="1.000000" stroke="none" 
	d="
M351.289978,428.070831 
	C347.698151,419.379395 344.341827,410.927795 340.992188,402.473572 
	C340.636658,401.576202 340.320129,400.663422 340.325348,399.341492 
	C343.716003,397.575897 343.563843,396.051178 341.174133,394.002106 
	C340.473114,393.401001 340.487579,391.965393 340.174103,390.912262 
	C358.178070,406.452637 373.704926,423.622742 378.939819,449.045227 
	C369.105377,441.606262 360.316406,434.958099 351.289978,428.070831 
z"/>
<path fill="#668885" opacity="1.000000" stroke="none" 
	d="
M482.369415,394.990234 
	C480.979614,393.583862 479.452240,392.323853 479.051361,390.772705 
	C476.406464,380.539032 469.856354,374.023529 460.070892,369.917969 
	C468.354095,365.489044 476.806732,361.393433 485.620728,357.265686 
	C488.844940,366.425842 491.764893,375.575836 491.145264,385.454437 
	C491.051636,386.946991 492.870026,388.559479 493.889160,390.472504 
	C490.233856,392.219666 486.493378,393.610809 482.369415,394.990234 
z"/>
<path fill="#2F5456" opacity="1.000000" stroke="none" 
	d="
M445.096008,355.068115 
	C441.754669,359.837585 438.413361,364.607086 435.056366,369.733093 
	C425.708313,374.767242 416.387634,379.468750 407.016968,384.068329 
	C406.397430,384.372406 405.396759,383.899963 403.496033,383.643097 
	C414.993896,371.565857 426.033783,359.969666 437.455750,348.593201 
	C440.257172,350.898010 442.676575,352.983063 445.096008,355.068115 
z"/>
<path fill="#839A88" opacity="1.000000" stroke="none" 
	d="
M252.313919,224.981491 
	C250.048203,220.824173 248.076660,216.852005 246.367218,212.674408 
	C255.962479,216.368362 265.295654,220.267700 274.849670,224.401443 
	C272.622162,229.287659 270.265747,233.991806 267.668884,238.559219 
	C266.896393,239.917892 265.448914,240.892792 263.894165,242.074554 
	C259.854462,236.459244 256.231262,230.812943 252.313919,224.981491 
z"/>
<path fill="#98B49F" opacity="1.000000" stroke="none" 
	d="
M381.667786,405.230316 
	C382.601379,398.378296 383.522736,391.524567 384.471680,384.674652 
	C385.580444,376.671112 386.713257,368.670868 387.876190,360.380127 
	C392.577332,359.060699 394.037628,362.209717 393.738770,366.021362 
	C392.950500,376.075714 391.738739,386.099152 390.562988,396.119324 
	C390.236481,398.901764 389.446960,401.629883 388.349426,404.745667 
	C385.775238,405.149048 383.721527,405.189697 381.667786,405.230316 
z"/>
<path fill="#3D605E" opacity="1.000000" stroke="none" 
	d="
M445.435303,355.005890 
	C442.676575,352.983063 440.257172,350.898010 437.759094,348.394836 
	C446.292175,338.451904 454.903961,328.927063 463.792847,319.216583 
	C462.569336,323.309113 461.464417,327.781647 459.480042,331.822266 
	C456.075256,338.754944 452.158234,345.438751 448.359772,352.172638 
	C447.756500,353.242096 446.648987,354.027130 445.435303,355.005890 
z"/>
<path fill="#1A3A3D" opacity="1.000000" stroke="none" 
	d="
M439.975220,498.817871 
	C438.596558,492.626587 440.439331,488.674896 445.014984,487.930206 
	C448.859985,487.304413 452.445068,487.896423 454.148987,492.085052 
	C455.857849,496.285858 454.283051,499.616150 450.829559,502.044434 
	C447.336609,504.500488 443.790253,503.437714 439.975220,498.817871 
z"/>
<path fill="#214446" opacity="1.000000" stroke="none" 
	d="
M381.024139,437.993805 
	C381.020172,428.956512 381.016235,419.919220 381.423035,410.466003 
	C383.823914,410.698029 385.813965,411.345947 387.804047,411.993866 
	C387.810455,419.343353 387.816833,426.692810 387.406433,434.502930 
	C385.001160,435.973633 383.012634,436.983734 381.024139,437.993805 
z"/>
<path fill="#486A69" opacity="1.000000" stroke="none" 
	d="
M380.949860,438.433411 
	C383.012634,436.983734 385.001160,435.973633 387.390656,434.967712 
	C388.588745,436.647003 389.385834,438.322144 390.503723,439.840088 
	C391.639648,442.094543 392.454773,444.506226 393.659546,446.972290 
	C390.819977,450.278412 390.845276,456.785919 383.615295,456.640594 
	C382.725525,450.870331 381.800568,444.871643 380.949860,438.433411 
z"/>
<path fill="#4F6F6D" opacity="1.000000" stroke="none" 
	d="
M385.007202,158.017426 
	C384.392670,157.071152 383.778137,156.124878 383.163574,155.178589 
	C381.880585,156.076508 380.592346,156.967072 379.316345,157.874786 
	C378.366730,158.550262 377.432953,159.247940 376.135254,159.915924 
	C378.542389,154.839584 381.306335,149.783066 384.604523,143.749222 
	C386.039795,146.450516 387.007050,148.270996 388.062988,150.428864 
	C388.086761,169.174606 388.033112,187.582993 387.939117,205.991180 
	C387.929901,207.799500 387.672943,209.606552 387.246613,211.721710 
	C386.882690,211.333160 386.803131,210.637100 386.862274,209.120422 
	C386.969910,194.227448 386.938843,180.155060 386.953094,165.666412 
	C386.334656,162.839233 385.670929,160.428329 385.007202,158.017426 
z"/>
<path fill="#98B49F" opacity="1.000000" stroke="none" 
	d="
M386.907776,166.082687 
	C386.938843,180.155060 386.969910,194.227448 386.854431,208.769562 
	C386.336334,209.119888 385.964783,209.000488 385.306549,208.943481 
	C385.044678,195.005569 385.069458,181.005249 385.414368,166.519882 
	C386.125580,166.050781 386.516663,166.066742 386.907776,166.082687 
z"/>
<path fill="#1A3A3D" opacity="1.000000" stroke="none" 
	d="
M333.935730,524.903442 
	C333.947815,540.654541 333.959869,556.405579 333.670471,572.600647 
	C332.994568,573.024902 332.620117,573.005188 332.245636,572.985535 
	C332.249695,557.293213 332.253754,541.600830 332.583740,525.468140 
	C333.251648,524.986267 333.593689,524.944824 333.935730,524.903442 
z"/>
<path fill="#274D4E" opacity="1.000000" stroke="none" 
	d="
M340.007690,390.616882 
	C340.487579,391.965393 340.473114,393.401001 341.174133,394.002106 
	C343.563843,396.051178 343.716003,397.575897 340.303894,398.968872 
	C336.717682,394.088623 333.492828,389.164703 330.420898,383.869507 
	C333.662994,385.772644 336.752106,388.047058 340.007690,390.616882 
z"/>
<path fill="#274D4E" opacity="1.000000" stroke="none" 
	d="
M332.143311,573.400269 
	C332.620117,573.005188 332.994568,573.024902 333.647369,573.075439 
	C333.503326,578.561279 333.080933,584.016357 332.586060,590.407776 
	C337.631287,589.662842 341.499603,589.091675 345.641083,588.277527 
	C346.293701,588.937378 346.673126,589.840149 347.285675,591.297668 
	C341.560608,591.297668 336.156555,591.297668 330.829346,591.297668 
	C331.226379,585.569031 331.633698,579.692078 332.143311,573.400269 
z"/>
<path fill="#597A76" opacity="1.000000" stroke="none" 
	d="
M387.968079,411.656860 
	C385.813965,411.345947 383.823914,410.698029 381.480774,410.046997 
	C381.232788,408.699768 381.337860,407.355652 381.555359,405.620911 
	C383.721527,405.189697 385.775238,405.149048 388.217529,405.146637 
	C388.448120,407.229858 388.290131,409.274841 387.968079,411.656860 
z"/>
<path fill="#274D4E" opacity="1.000000" stroke="none" 
	d="
M345.654175,584.565430 
	C345.306335,580.255615 345.019989,575.482117 344.919250,570.410706 
	C345.308502,574.775757 345.512085,579.438721 345.654175,584.565430 
z"/>
<path fill="#274D4E" opacity="1.000000" stroke="none" 
	d="
M333.945190,524.514587 
	C333.593689,524.944824 333.251648,524.986267 332.650635,525.028870 
	C331.464630,521.263184 330.537659,517.496338 329.562134,513.532227 
	C329.882263,513.513550 331.108826,513.442078 332.691406,513.486572 
	C333.349854,517.110291 333.652252,520.618042 333.945190,524.514587 
z"/>
<path fill="#274D4E" opacity="1.000000" stroke="none" 
	d="
M344.518188,517.741699 
	C343.629517,516.734680 342.857910,515.336243 342.032227,513.624756 
	C346.129089,512.509521 344.351440,515.608093 344.518188,517.741699 
z"/>
<path fill="#456867" opacity="1.000000" stroke="none" 
	d="
M265.133606,390.063843 
	C263.229736,389.519928 261.136719,388.739380 259.027985,387.591034 
	C260.989655,388.091217 262.967072,388.959229 265.133606,390.063843 
z"/>
<path fill="#456867" opacity="1.000000" stroke="none" 
	d="
M256.687500,386.047180 
	C256.473816,387.702148 255.963394,389.165894 255.452957,390.629639 
	C255.067551,390.551208 254.682129,390.472748 254.296707,390.394287 
	C254.522141,388.998718 254.747574,387.603149 255.020294,385.802948 
	C255.508636,385.550873 255.949692,385.703430 256.687500,386.047180 
z"/>
<path fill="#274D4E" opacity="1.000000" stroke="none" 
	d="
M339.619507,513.248413 
	C338.746277,513.588135 337.469299,513.841858 336.077911,513.811584 
	C337.047607,513.405884 338.131653,513.284180 339.619507,513.248413 
z"/>
<path fill="#274D4E" opacity="1.000000" stroke="none" 
	d="
M330.256470,383.226013 
	C329.657379,383.140839 328.892944,382.812134 328.101654,382.111938 
	C328.746887,382.154419 329.419006,382.568451 330.256470,383.226013 
z"/>
<path fill="#486860" opacity="1.000000" stroke="none" 
	d="
M313.082336,315.261475 
	C313.303223,315.237244 313.623871,315.448761 313.960388,315.896729 
	C313.711517,315.921234 313.446808,315.709259 313.082336,315.261475 
z"/>
<path fill="#274D4E" opacity="1.000000" stroke="none" 
	d="
M326.834534,380.743622 
	C326.435272,380.763794 325.880035,380.528107 325.200897,380.004150 
	C325.610870,379.973206 326.144745,380.230499 326.834534,380.743622 
z"/>
<path fill="#274D4E" opacity="1.000000" stroke="none" 
	d="
M322.579651,377.904175 
	C322.568848,377.960968 322.586548,377.854675 322.615814,377.861389 
	C322.645081,377.868073 322.590454,377.847382 322.579651,377.904175 
z"/>
<path fill="#3D605E" opacity="1.000000" stroke="none" 
	d="
M287.781464,358.915741 
	C287.833435,359.021332 287.506409,358.811096 287.413696,358.796448 
	C287.321014,358.781799 287.729492,358.810150 287.781464,358.915741 
z"/>
<path fill="#274D4E" opacity="1.000000" stroke="none" 
	d="
M345.903748,518.624329 
	C346.036194,518.541382 345.813324,518.911560 345.764252,518.963135 
	C345.715179,519.014771 345.771271,518.707275 345.903748,518.624329 
z"/>
<path fill="#98B49F" opacity="1.000000" stroke="none" 
	d="
M386.840210,224.057739 
	C386.985596,224.116333 387.017517,224.287476 387.029541,224.718903 
	C386.700714,224.779877 386.606445,224.510254 386.840210,224.057739 
z"/>
<path fill="#274D4E" opacity="1.000000" stroke="none" 
	d="
M325.155518,379.630829 
	C324.936493,379.733154 324.614990,379.566589 324.155090,379.162994 
	C324.362122,379.071289 324.707611,379.216614 325.155518,379.630829 
z"/>
<path fill="#F2F2F0" opacity="1.000000" stroke="none" 
	d="
M353.993378,563.428345 
	C347.254669,562.339661 345.904388,561.012024 345.703979,554.766968 
	C345.480225,547.793640 345.397308,540.809448 345.500549,533.833618 
	C345.601166,527.036987 350.552307,521.041687 356.403290,520.202454 
	C361.978210,519.402710 367.335449,523.269165 369.321777,530.322266 
	C372.200165,540.542725 370.322449,550.244019 363.746521,558.476135 
	C361.728149,561.002808 357.588135,561.834717 353.993378,563.428345 
z"/>
<path fill="#F2F2F0" opacity="1.000000" stroke="none" 
	d="
M306.942200,530.481384 
	C299.206818,533.867188 291.624878,536.881836 283.053284,540.289978 
	C283.414978,532.465088 284.633423,526.586365 289.342682,522.135925 
	C292.388306,519.257629 295.957092,516.936096 300.523376,518.922852 
	C305.397400,521.043579 307.138824,525.068237 306.942200,530.481384 
z"/>
<path fill="#F2F2F0" opacity="1.000000" stroke="none" 
	d="
M539.041748,537.044556 
	C535.868469,538.032715 533.075745,538.926025 530.201355,539.845459 
	C529.232788,531.005981 533.032593,522.949829 539.521729,519.491760 
	C546.203674,515.930908 554.534058,521.047241 554.018494,528.610413 
	C553.926331,529.962769 552.334656,531.734680 550.988220,532.379822 
	C547.259216,534.166687 543.294006,535.460815 539.041748,537.044556 
z"/>
<path fill="#78907E" opacity="1.000000" stroke="none" 
	d="
M386.953094,165.666412 
	C386.516663,166.066742 386.125580,166.050781 385.442047,166.057083 
	C385.103821,163.688828 385.058014,161.298294 385.009674,158.462601 
	C385.670929,160.428329 386.334656,162.839233 386.953094,165.666412 
z"/>
</svg>